<?xml version="1.0" encoding="UTF-8" standalone="no"?>
<!DOCTYPE svg PUBLIC "-//W3C//DTD SVG 1.1//EN"
 "http://www.w3.org/Graphics/SVG/1.1/DTD/svg11.dtd">
<!-- Generated by graphviz version 3.0.0 (20220226.1711)
 -->
<!-- Title: dependencies Pages: 1 -->
<svg width="1205pt" height="247pt"
 viewBox="0.00 0.00 1205.00 246.80" xmlns="http://www.w3.org/2000/svg" xmlns:xlink="http://www.w3.org/1999/xlink">
<g id="graph0" class="graph" transform="scale(1 1) rotate(0) translate(4 242.8)">
<title>dependencies</title>
<polygon fill="white" stroke="transparent" points="-4,4 -4,-242.8 1201,-242.8 1201,4 -4,4"/>
<text text-anchor="middle" x="598.5" y="-8.2" font-family="sans-serif" font-size="14.00">dependencies</text>
<g id="clust1" class="cluster">
<title>cluster_PaperAngularClientSdkModule</title>
<polygon fill="none" stroke="black" stroke-dasharray="1,5" points="8,-32.8 8,-230.8 1189,-230.8 1189,-32.8 8,-32.8"/>
</g>
<g id="clust3" class="cluster">
<title>cluster_PaperAngularClientSdkModule_imports</title>
<polygon fill="none" stroke="black" points="770,-40.8 770,-92.8 1181,-92.8 1181,-40.8 770,-40.8"/>
</g>
<g id="clust4" class="cluster">
<title>cluster_PaperAngularClientSdkModule_exports</title>
<polygon fill="none" stroke="black" points="432,-170.8 432,-222.8 849,-222.8 849,-170.8 432,-170.8"/>
</g>
<g id="clust6" class="cluster">
<title>cluster_PaperAngularClientSdkModule_providers</title>
<polygon fill="none" stroke="black" points="16,-40.8 16,-92.8 762,-92.8 762,-40.8 16,-40.8"/>
</g>
<!-- PaperCreateWalletComponent -->
<g id="node1" class="node">
<title>PaperCreateWalletComponent</title>
<polygon fill="#8dd3c7" stroke="black" points="1172.55,-84.8 1169.55,-88.8 1148.55,-88.8 1145.55,-84.8 985.45,-84.8 985.45,-48.8 1172.55,-48.8 1172.55,-84.8"/>
<text text-anchor="middle" x="1079" y="-62.6" font-family="Times,serif" font-size="14.00">PaperCreateWalletComponent</text>
</g>
<!-- PaperAngularClientSdkModule -->
<g id="node3" class="node">
<title>PaperAngularClientSdkModule</title>
<polygon fill="#8dd3c7" stroke="black" points="737.81,-149.8 734.81,-153.8 713.81,-153.8 710.81,-149.8 544.19,-149.8 544.19,-113.8 737.81,-113.8 737.81,-149.8"/>
<text text-anchor="middle" x="641" y="-127.6" font-family="Times,serif" font-size="14.00">PaperAngularClientSdkModule</text>
</g>
<!-- PaperCreateWalletComponent&#45;&gt;PaperAngularClientSdkModule -->
<g id="edge1" class="edge">
<title>PaperCreateWalletComponent&#45;&gt;PaperAngularClientSdkModule</title>
<path fill="none" stroke="black" d="M1079,-85.08C1079,-106.12 1079,-137.8 1079,-137.8 1079,-137.8 747.66,-137.8 747.66,-137.8"/>
<polygon fill="black" stroke="black" points="747.66,-134.3 737.66,-137.8 747.66,-141.3 747.66,-134.3"/>
</g>
<!-- PaperPayWithCardComponent -->
<g id="node2" class="node">
<title>PaperPayWithCardComponent</title>
<polygon fill="#8dd3c7" stroke="black" points="967.91,-84.8 964.91,-88.8 943.91,-88.8 940.91,-84.8 778.09,-84.8 778.09,-48.8 967.91,-48.8 967.91,-84.8"/>
<text text-anchor="middle" x="873" y="-62.6" font-family="Times,serif" font-size="14.00">PaperPayWithCardComponent</text>
</g>
<!-- PaperPayWithCardComponent&#45;&gt;PaperAngularClientSdkModule -->
<g id="edge2" class="edge">
<title>PaperPayWithCardComponent&#45;&gt;PaperAngularClientSdkModule</title>
<path fill="none" stroke="black" d="M809.78,-84.82C809.78,-102.17 809.78,-125.8 809.78,-125.8 809.78,-125.8 747.71,-125.8 747.71,-125.8"/>
<polygon fill="black" stroke="black" points="747.71,-122.3 737.71,-125.8 747.71,-129.3 747.71,-122.3"/>
</g>
<!-- PaperCreateWalletComponent  -->
<g id="node4" class="node">
<title>PaperCreateWalletComponent </title>
<polygon fill="#fb8072" stroke="black" points="841.05,-214.8 650.95,-214.8 650.95,-178.8 841.05,-178.8 841.05,-214.8"/>
<text text-anchor="middle" x="746" y="-192.6" font-family="Times,serif" font-size="14.00">PaperCreateWalletComponent </text>
</g>
<!-- PaperAngularClientSdkModule&#45;&gt;PaperCreateWalletComponent  -->
<g id="edge3" class="edge">
<title>PaperAngularClientSdkModule&#45;&gt;PaperCreateWalletComponent </title>
<path fill="none" stroke="black" stroke-dasharray="5,2" d="M694.19,-149.91C694.19,-149.91 694.19,-168.79 694.19,-168.79"/>
<polygon fill="black" stroke="black" points="690.69,-168.79 694.19,-178.79 697.69,-168.79 690.69,-168.79"/>
</g>
<!-- PaperPayWithCardComponent  -->
<g id="node5" class="node">
<title>PaperPayWithCardComponent </title>
<polygon fill="#fb8072" stroke="black" points="632.41,-214.8 439.59,-214.8 439.59,-178.8 632.41,-178.8 632.41,-214.8"/>
<text text-anchor="middle" x="536" y="-192.6" font-family="Times,serif" font-size="14.00">PaperPayWithCardComponent </text>
</g>
<!-- PaperAngularClientSdkModule&#45;&gt;PaperPayWithCardComponent  -->
<g id="edge4" class="edge">
<title>PaperAngularClientSdkModule&#45;&gt;PaperPayWithCardComponent </title>
<path fill="none" stroke="black" stroke-dasharray="5,2" d="M588.4,-149.91C588.4,-149.91 588.4,-168.79 588.4,-168.79"/>
<polygon fill="black" stroke="black" points="584.9,-168.79 588.4,-178.79 591.9,-168.79 584.9,-168.79"/>
</g>
<!-- PaperCreateWalletService -->
<g id="node6" class="node">
<title>PaperCreateWalletService</title>
<ellipse fill="#fdb462" stroke="black" cx="641" cy="-66.8" rx="112.83" ry="18"/>
<text text-anchor="middle" x="641" y="-62.6" font-family="Times,serif" font-size="14.00">PaperCreateWalletService</text>
</g>
<!-- PaperCreateWalletService&#45;&gt;PaperAngularClientSdkModule -->
<g id="edge5" class="edge">
<title>PaperCreateWalletService&#45;&gt;PaperAngularClientSdkModule</title>
<path fill="none" stroke="black" d="M641,-84.91C641,-84.91 641,-103.79 641,-103.79"/>
<polygon fill="black" stroke="black" points="637.5,-103.79 641,-113.79 644.5,-103.79 637.5,-103.79"/>
</g>
<!-- PaperEventsHandlerService -->
<g id="node7" class="node">
<title>PaperEventsHandlerService</title>
<ellipse fill="#fdb462" stroke="black" cx="391" cy="-66.8" rx="119.23" ry="18"/>
<text text-anchor="middle" x="391" y="-62.6" font-family="Times,serif" font-size="14.00">PaperEventsHandlerService</text>
</g>
<!-- PaperEventsHandlerService&#45;&gt;PaperAngularClientSdkModule -->
<g id="edge6" class="edge">
<title>PaperEventsHandlerService&#45;&gt;PaperAngularClientSdkModule</title>
<path fill="none" stroke="black" d="M474.95,-79.6C474.95,-96.95 474.95,-125.8 474.95,-125.8 474.95,-125.8 533.93,-125.8 533.93,-125.8"/>
<polygon fill="black" stroke="black" points="533.93,-129.3 543.93,-125.8 533.93,-122.3 533.93,-129.3"/>
</g>
<!-- PaperPayWithCardService -->
<g id="node8" class="node">
<title>PaperPayWithCardService</title>
<ellipse fill="#fdb462" stroke="black" cx="139" cy="-66.8" rx="114.59" ry="18"/>
<text text-anchor="middle" x="139" y="-62.6" font-family="Times,serif" font-size="14.00">PaperPayWithCardService</text>
</g>
<!-- PaperPayWithCardService&#45;&gt;PaperAngularClientSdkModule -->
<g id="edge7" class="edge">
<title>PaperPayWithCardService&#45;&gt;PaperAngularClientSdkModule</title>
<path fill="none" stroke="black" d="M139,-85.08C139,-106.12 139,-137.8 139,-137.8 139,-137.8 534.21,-137.8 534.21,-137.8"/>
<polygon fill="black" stroke="black" points="534.21,-141.3 544.21,-137.8 534.21,-134.3 534.21,-141.3"/>
</g>
</g>
</svg>
